<mxfile host="app.diagrams.net" modified="2023-05-04T06:51:31.960Z" agent="Mozilla/5.0 (Macintosh; Intel Mac OS X 10_15_7) AppleWebKit/537.36 (KHTML, like Gecko) Chrome/112.0.0.0 Safari/537.36" version="21.1.2" etag="9pv2T3VZF6EcA7Gk3d_f" type="github">
  <diagram name="第 1 页" id="lT-qMFXidC3Upgh4udUn">
    <mxGraphModel>
      <root>
        <mxCell id="0" />
        <mxCell id="1" parent="0" />
      </root>
    </mxGraphModel>
  </diagram>
</mxfile>
